<?xml version="1.0" standalone="no"?>
<!DOCTYPE svg PUBLIC "-//W3C//DTD SVG 20010904//EN"
 "http://www.w3.org/TR/2001/REC-SVG-20010904/DTD/svg10.dtd">
<svg version="1.0" xmlns="http://www.w3.org/2000/svg"
 width="665.000000pt" height="375.000000pt" viewBox="0 0 665.000000 375.000000"
 preserveAspectRatio="xMidYMid meet">

<g transform="translate(0.000000,375.000000) scale(0.100000,-0.100000)"
fill="#000000" stroke="none">
<path d="M1778 2264 c-36 -11 -34 -78 3 -89 10 -4 31 -22 46 -42 25 -33 27
-43 31 -157 3 -74 9 -124 16 -128 15 -10 88 -10 104 1 11 6 13 40 10 148 -3
134 -4 142 -30 179 -47 66 -124 104 -180 88z"/>
<path d="M1337 2062 c-3 -16 -16 -34 -29 -41 -17 -9 -18 -10 -3 -6 17 5 17 3
-5 -18 -14 -14 -29 -22 -33 -20 -5 3 -7 -20 -5 -51 2 -33 -1 -56 -7 -56 -5 0
-1 -7 10 -15 16 -13 61 -15 270 -13 l250 3 3 53 3 53 -35 -6 c-72 -14 -134 26
-157 103 l-12 42 -122 0 -122 0 -6 -28z"/>
<path d="M5315 2072 c-139 -65 -167 -225 -59 -329 87 -84 202 -84 292 1 99 94
81 251 -37 320 -47 27 -146 32 -196 8z m177 -99 c55 -55 43 -152 -24 -193
-110 -67 -233 54 -174 169 35 66 143 79 198 24z"/>
<path d="M2170 1885 l0 -195 40 0 c43 0 44 1 41 68 l-2 42 38 0 c60 0 107 17
139 51 25 26 29 38 29 89 0 48 -4 63 -25 85 -42 45 -72 55 -170 55 l-90 0 0
-195z m181 105 c14 -8 19 -21 19 -50 0 -45 -18 -60 -74 -60 -33 0 -36 2 -36
29 0 16 -3 43 -6 60 -6 31 -6 31 35 31 23 0 51 -5 62 -10z"/>
<path d="M2534 2056 c-3 -14 -4 -77 -2 -138 4 -140 21 -182 88 -215 89 -46
193 -16 237 67 22 41 23 54 21 175 l-3 130 -42 3 -43 3 0 -136 c0 -131 -1
-137 -25 -160 -34 -35 -88 -34 -120 1 -23 25 -25 34 -27 158 l-3 131 -37 3
c-33 3 -38 0 -44 -22z"/>
<path d="M2975 2068 c-3 -8 -4 -95 -3 -193 l3 -180 113 -3 112 -3 0 36 0 35
-70 0 -69 0 -3 158 -3 157 -38 3 c-24 2 -39 -1 -42 -10z"/>
<path d="M3274 2067 c-2 -7 -3 -94 -2 -192 l3 -180 112 -3 112 -3 7 26 c4 15
3 30 -2 35 -5 5 -40 10 -79 12 l-70 3 -3 158 -3 157 -35 0 c-19 0 -37 -6 -40
-13z"/>
<path d="M3582 1888 l3 -193 117 -3 117 -3 7 25 c10 39 -2 46 -82 46 l-74 0 0
45 0 45 60 0 60 0 0 35 0 35 -60 0 -60 0 0 45 0 44 78 3 77 3 0 30 0 30 -123
3 -122 3 2 -193z"/>
<path d="M3924 2067 c-2 -7 -3 -94 -2 -192 l3 -180 40 0 40 0 5 55 c5 50 7 55
31 58 22 3 31 -6 64 -57 35 -57 40 -61 76 -61 21 0 40 3 43 8 2 4 -11 33 -31
65 l-35 57 31 30 c71 72 39 192 -60 220 -51 15 -199 13 -205 -3z m204 -79 c6
-6 12 -25 12 -44 0 -42 -30 -64 -87 -64 l-43 0 0 58 c0 32 3 61 6 65 9 8 97
-4 112 -15z"/>
<path d="M4337 2073 c-4 -3 -7 -91 -7 -196 l0 -189 114 4 c108 3 117 5 157 33
61 43 80 81 80 159 0 38 -6 77 -15 94 -21 40 -69 79 -114 92 -41 11 -205 14
-215 3z m168 -73 c68 0 113 -96 81 -172 -20 -47 -42 -59 -114 -61 l-57 -2 -3
117 c-3 114 -2 117 20 121 13 2 29 3 36 1 8 -2 24 -4 37 -4z"/>
<path d="M4777 2073 c-4 -3 -7 -63 -7 -132 0 -103 4 -134 20 -168 46 -103 198
-123 280 -38 l35 36 0 152 0 152 -35 0 -35 0 -6 -135 c-3 -74 -7 -136 -8 -137
-31 -46 -95 -56 -136 -20 -28 23 -29 31 -34 235 l-1 62 -33 0 c-19 0 -37 -3
-40 -7z"/>
<path d="M1878 1768 c-12 -10 -17 -38 -20 -123 -3 -60 -10 -120 -17 -132 -22
-42 -68 -57 -161 -54 -125 3 -248 -9 -266 -26 -20 -20 -19 -89 2 -97 31 -12
388 -6 425 8 55 19 106 63 128 110 18 36 21 62 21 178 0 132 -1 136 -22 142
-37 9 -73 7 -90 -6z"/>
<path d="M1079 1763 c0 -5 -1 -28 -1 -53 0 -45 0 -45 -8 -10 -5 24 -8 -3 -9
-87 -1 -81 3 -123 10 -123 5 0 8 -4 5 -8 -7 -12 35 -76 70 -105 17 -14 52 -31
77 -38 40 -10 51 -9 72 5 43 28 32 63 -29 92 -70 34 -81 58 -85 200 -2 83 -7
124 -15 126 -34 4 -42 3 -55 -6 -11 -8 -13 -8 -7 2 4 7 1 12 -8 12 -9 0 -16
-3 -17 -7z"/>
<path d="M1257 1763 c-4 -3 -7 -25 -7 -48 l0 -42 54 -6 c30 -3 66 -13 81 -23
29 -19 55 -63 55 -93 0 -11 4 -22 8 -25 4 -2 77 -6 161 -8 190 -4 183 -9 179
142 l-3 105 -261 3 c-143 1 -263 -1 -267 -5z"/>
<path d="M2200 1560 c-26 -26 -27 -91 -2 -112 25 -22 50 -29 78 -22 35 9 30
25 -6 17 -41 -8 -70 19 -70 63 0 41 36 70 76 60 17 -5 23 -3 19 4 -11 18 -74
11 -95 -10z"/>
<path d="M2352 1505 c-22 -53 -27 -75 -17 -75 7 0 15 9 18 20 7 29 60 27 80
-2 8 -13 17 -21 20 -18 7 7 -48 143 -60 147 -6 2 -24 -30 -41 -72z m61 -17
c-2 -5 -13 -8 -24 -8 -22 0 -25 21 -7 53 11 22 12 22 24 -8 7 -16 10 -33 7
-37z"/>
<path d="M2490 1505 l0 -75 34 0 c52 0 66 9 66 41 0 16 -4 29 -10 29 -5 0 -7
13 -3 31 7 37 -6 49 -54 49 l-33 0 0 -75z m70 35 c0 -15 -7 -20 -25 -20 -18 0
-25 5 -25 20 0 15 7 20 25 20 18 0 25 -5 25 -20z m-6 -46 c35 -13 12 -54 -30
-54 -9 0 -14 11 -14 30 0 30 11 37 44 24z"/>
<path d="M2709 1559 c-9 -17 -7 -25 12 -45 12 -13 28 -24 35 -24 19 0 24 -27
9 -40 -8 -7 -26 -9 -40 -6 -14 4 -25 2 -25 -3 0 -14 40 -21 66 -11 36 14 32
56 -6 78 -37 21 -38 57 -2 56 12 0 22 3 22 8 0 4 -13 8 -30 8 -20 0 -33 -7
-41 -21z"/>
<path d="M2840 1506 c0 -44 4 -76 10 -76 6 0 10 14 10 30 0 28 3 30 35 30 31
0 36 -3 42 -30 11 -56 24 -30 21 43 -3 73 -20 99 -26 39 -3 -32 -5 -33 -40
-30 -34 3 -37 6 -34 30 2 14 -2 29 -7 33 -8 4 -11 -19 -11 -69z"/>
<path d="M3047 1568 c-43 -101 -54 -138 -42 -138 7 0 15 9 18 20 4 15 14 20
40 20 27 0 37 -5 42 -20 3 -11 10 -20 15 -20 10 0 -7 53 -36 113 -19 39 -28
45 -37 25z m27 -50 c9 -35 8 -38 -14 -38 -11 0 -20 3 -20 8 0 19 13 52 20 52
4 0 10 -10 14 -22z"/>
<path d="M3167 1573 c-11 -10 -8 -143 3 -143 6 0 10 11 10 24 0 38 16 40 46 6
35 -38 52 -39 25 -1 -18 25 -19 30 -6 41 18 15 20 51 3 68 -13 13 -70 17 -81
5z m71 -35 c3 -18 -32 -43 -48 -33 -6 3 -10 17 -10 31 0 22 4 25 27 22 16 -2
29 -10 31 -20z"/>
<path d="M3308 1573 c-2 -4 -3 -26 -2 -48 1 -22 2 -52 3 -67 0 -16 6 -28 11
-28 7 0 8 26 4 73 -6 73 -9 85 -16 70z"/>
<path d="M3380 1505 c0 -49 4 -75 11 -75 8 0 10 17 6 56 -6 54 -5 55 13 39 10
-9 31 -34 46 -56 15 -21 31 -39 35 -39 5 0 9 35 9 77 0 83 -16 92 -22 13 l-3
-45 -38 53 c-21 28 -43 52 -48 52 -5 0 -9 -34 -9 -75z"/>
<path d="M3579 1570 c-9 -5 -22 -23 -29 -39 -23 -56 35 -120 95 -105 21 5 25
12 25 40 0 19 -4 34 -10 34 -5 0 -10 -13 -10 -30 0 -25 -4 -30 -23 -30 -56 0
-79 85 -32 116 16 10 34 14 51 10 17 -5 23 -3 19 4 -8 12 -64 13 -86 0z"/>
<path d="M2638 1483 c12 -2 30 -2 40 0 9 3 -1 5 -23 4 -22 0 -30 -2 -17 -4z"/>
</g>
</svg>
